<?xml version="1.0" encoding="UTF-8"?>
<svg version="1.1" xmlns="http://www.w3.org/2000/svg" width="512" height="512">
<path d="M0 0 C2.86475679 2.01699137 4.70609479 3.62411297 5.45826447 7.14531803 C5.64467826 9.88321092 5.66126364 12.5801773 5.62818909 15.32434082 C5.63528347 16.37455807 5.64237786 17.42477532 5.64968723 18.50681734 C5.66731193 22.03160807 5.6491385 25.55530267 5.63110352 29.08007812 C5.63624058 31.60469567 5.64352024 34.12930964 5.65278625 36.65391541 C5.66940812 42.80259649 5.66264777 48.9508701 5.64469803 55.09953582 C5.63067342 60.09653649 5.62677891 65.0934509 5.6301403 70.09046936 C5.63061775 70.80161613 5.63109519 71.51276291 5.6315871 72.24545959 C5.63261343 73.69013228 5.63366879 75.13480496 5.63475286 76.57947761 C5.64332085 89.35464371 5.6266418 102.12965639 5.59692383 114.90478516 C5.56808614 127.30166061 5.56100271 139.69831505 5.57641602 152.09521484 C5.59317631 165.59399054 5.59721417 179.09266129 5.57970566 192.59143972 C5.57786126 194.03080335 5.57602654 195.47016699 5.57420158 196.90953064 C5.57328949 197.61772848 5.5723774 198.32592632 5.57143768 199.0555847 C5.5658312 204.04668241 5.56914049 209.03772891 5.57574654 214.02882385 C5.58428453 220.74626923 5.57132561 227.46334811 5.54389763 234.18075752 C5.53699904 236.64908971 5.5369315 239.11745162 5.54411316 241.585783 C5.5527735 244.94943369 5.53690838 248.31209169 5.5146637 251.67565918 C5.52290446 252.65765809 5.53114523 253.63965699 5.53963572 254.65141344 C5.48669897 258.97398983 5.39876939 261.35380142 3.08686733 265.10019684 C0.8556342 267.13142503 0.03202802 267.71872173 -2.94140625 267.7265625 C-9.67802022 267.32277769 -15.20653696 263.6446735 -20.9375 260.375 C-22.17665477 259.68685441 -23.41691134 259.00068952 -24.65820312 258.31640625 C-27.20646084 256.90913926 -29.7493953 255.49291544 -32.28857422 254.06933594 C-37.82045837 250.9748088 -43.41249968 247.99252094 -49 245 C-51.14868827 243.84291348 -53.29712404 242.68535793 -55.4453125 241.52734375 C-62.25028919 237.86320415 -69.06188733 234.21148466 -75.875 230.5625 C-77.5919104 229.64271362 -77.5919104 229.64271362 -79.34350586 228.7043457 C-84.86067619 225.74942202 -90.37905543 222.79681036 -95.90032959 219.8495636 C-98.49625279 218.46364212 -101.09157174 217.07659135 -103.68682861 215.68942261 C-104.92753061 215.02667998 -106.16853353 214.36450037 -107.40985107 213.70291138 C-109.12943841 212.78639267 -110.84794743 211.86785167 -112.56640625 210.94921875 C-113.54552979 210.42674561 -114.52465332 209.90427246 -115.53344727 209.3659668 C-118 208 -118 208 -121 206 C-123.57833165 205.68509492 -123.57833165 205.68509492 -126.50952148 205.71289062 C-127.63756699 205.69947632 -128.76561249 205.68606201 -129.92784119 205.67224121 C-131.14661453 205.66696411 -132.36538788 205.66168701 -133.62109375 205.65625 C-134.87253677 205.6416272 -136.1239798 205.62700439 -137.41334534 205.61193848 C-141.42136762 205.565345 -145.42933408 205.53079518 -149.4375 205.5 C-154.70721561 205.45947343 -159.97656947 205.40527605 -165.24609375 205.34375 C-166.46284286 205.3384729 -167.67959198 205.3331958 -168.93321228 205.32775879 C-170.06440994 205.31434448 -171.1956076 205.30093018 -172.36108398 205.28710938 C-173.3557518 205.27981812 -174.35041962 205.27252686 -175.37522888 205.26501465 C-178.1162312 204.98826451 -179.71032552 204.5107472 -182 203 C-184.23151726 199.65272411 -184.25383732 198.57046673 -184.26742554 194.66165161 C-184.27595551 193.55408508 -184.28448547 192.44651855 -184.29327393 191.3053894 C-184.29236755 190.08973297 -184.29146118 188.87407654 -184.29052734 187.62158203 C-184.29724457 186.3417041 -184.30396179 185.06182617 -184.31088257 183.74316406 C-184.32856178 180.23070224 -184.33323876 176.71833783 -184.33451414 173.20583582 C-184.33641304 170.27345877 -184.34377052 167.34110442 -184.35085833 164.40873611 C-184.36714741 157.4897642 -184.37202684 150.57084435 -184.37060547 143.65185547 C-184.36940407 136.51551428 -184.39050401 129.37947556 -184.4220928 122.24321091 C-184.44824928 116.11571999 -184.45897303 109.98832788 -184.45769465 103.86078155 C-184.4571848 100.20135169 -184.46288031 96.54219055 -184.48405075 92.88281631 C-184.50702149 88.80073647 -184.49791619 84.71933359 -184.48583984 80.63720703 C-184.49707886 79.42559906 -184.50831787 78.21399109 -184.51989746 76.96566772 C-184.45896422 68.87990673 -184.45896422 68.87990673 -182.29826355 64.73750305 C-179.50692193 62.62722959 -178.21418826 62.428847 -174.74194336 62.56274414 C-173.68729889 62.58766937 -172.63265442 62.6125946 -171.54605103 62.63827515 C-169.83522842 62.71098129 -169.83522842 62.71098129 -168.08984375 62.78515625 C-165.64306577 62.83390793 -163.19619701 62.87825919 -160.74926758 62.91870117 C-159.47177643 62.94499603 -158.19428528 62.97129089 -156.87808228 62.99838257 C-134.4988182 63.36251681 -117.21838182 63.29530285 -98.6328125 49.8515625 C-94.41338674 46.88419186 -89.87299254 44.5809352 -85.3125 42.1875 C-83.53606452 41.21533208 -81.76137347 40.239971 -79.98828125 39.26171875 C-72.69623648 35.27092919 -65.34601142 31.39019307 -58 27.5 C-48.5764417 22.50823796 -39.16935996 17.49117059 -29.8125 12.375 C-28.93134521 11.89514648 -28.05019043 11.41529297 -27.14233398 10.92089844 C-23.41218106 8.88594272 -19.69560067 6.83544024 -16.015625 4.7109375 C-14.30632812 3.74027344 -14.30632812 3.74027344 -12.5625 2.75 C-11.63566406 2.20859375 -10.70882812 1.6671875 -9.75390625 1.109375 C-6.19582652 -0.32395074 -3.80351208 -0.53171984 0 0 Z " fill="#9AC8FF" transform="translate(193,238)"/>
<path d="M0 0 C1.37045026 -0.00542487 2.74089468 -0.01254958 4.11132812 -0.02124023 C7.82214736 -0.03943355 11.53252041 -0.0324229 15.24334717 -0.01972389 C19.13229549 -0.00957537 23.02120638 -0.0189947 26.91015625 -0.02526855 C33.44017372 -0.03253959 39.97001005 -0.02297163 46.5 -0.00390625 C54.04255185 0.01786159 61.58467116 0.01080982 69.12721252 -0.01121187 C75.61063837 -0.02938147 82.09393423 -0.03191662 88.57737732 -0.0214572 C92.44635098 -0.01523078 96.31512153 -0.01436299 100.18408203 -0.02760315 C103.82206402 -0.03918392 107.45949 -0.03109613 111.09741211 -0.00802612 C113.06428265 -0.00024035 115.03120039 -0.01207597 116.99804688 -0.02453613 C127.70572661 0.07802785 127.70572661 0.07802785 132.5625 4.51757812 C133.32012131 5.18916962 134.07774261 5.86076111 134.85832214 6.55270386 C135.58207535 7.27184967 136.30582855 7.99099548 137.05151367 8.73193359 C137.88224899 9.5531369 138.71298431 10.37434021 139.56889343 11.22042847 C140.88637321 12.53927536 140.88637321 12.53927536 142.23046875 13.88476562 C143.14709793 14.79710968 144.06372711 15.70945374 145.00813293 16.64944458 C146.94039286 18.57427505 148.86877451 20.50289219 150.79467773 22.43408203 C153.25410551 24.89931251 155.72473425 27.3529669 158.19861889 29.80367851 C160.57036363 32.15709479 162.93101487 34.52152318 165.29296875 36.88476562 C166.1773613 37.75994843 167.06175385 38.63513123 167.97294617 39.53683472 C168.79422501 40.36434235 169.61550385 41.19184998 170.46166992 42.04443359 C171.18303635 42.76517059 171.90440277 43.48590759 172.64762878 44.22848511 C176.83888841 49.23883936 178.00526989 53.76987921 177.94345093 60.18408203 C177.9481309 60.93634882 177.95281087 61.68861561 177.95763266 62.46367836 C177.9695593 64.97401399 177.96013478 67.48380134 177.95068359 69.99414062 C177.95475034 71.79807859 177.96009279 73.60201406 177.96661377 75.40594482 C177.98028094 80.29846056 177.97499116 85.19078634 177.96547651 90.08330536 C177.95787685 95.20544443 177.96492638 100.32756732 177.96963501 105.44970703 C177.97509166 114.05113645 177.96790331 122.65248857 177.95361328 131.25390625 C177.93728696 141.19576271 177.94257553 151.13743459 177.9590925 161.07928658 C177.97270993 169.61787558 177.97462576 178.15640906 177.96677649 186.69500542 C177.9621014 191.79354757 177.96147066 196.89200298 177.97138596 201.99053955 C177.98005705 206.78405643 177.97403103 211.57733551 177.95670319 216.37082672 C177.95273912 218.12922013 177.95387103 219.88763357 177.96049118 221.64601898 C177.96870001 224.04797349 177.95839357 226.44916801 177.94345093 228.85107422 C177.95014309 229.54543894 177.95683526 230.23980366 177.96373022 230.95520973 C177.90064555 236.19012279 176.62383306 240.25762704 173.0625 244.16210938 C167.99777692 248.1057349 164.83214107 248.64431679 158.4980011 248.67147827 C157.77421003 248.67586053 157.05041896 248.68024278 156.30469483 248.68475783 C153.87280499 248.69814118 151.44095139 248.70432366 149.0090332 248.71044922 C147.26789689 248.71835059 145.52676222 248.72661957 143.78562927 248.73522949 C138.06152917 248.76144692 132.33742176 248.77675749 126.61328125 248.79101562 C124.64251386 248.79637554 122.67174652 248.80175305 120.70097923 248.80714798 C112.50254227 248.82877685 104.30410727 248.84751318 96.10564899 248.85877037 C84.3581408 248.87500697 72.6109635 248.9081777 60.86358005 248.96517122 C52.60274098 249.00388216 44.34199036 249.02340447 36.08106297 249.02869093 C31.14773123 249.03234298 26.21475244 249.04434862 21.28151894 249.07679367 C16.63816226 249.10689431 11.99537171 249.11317903 7.35193825 249.10140991 C5.65080148 249.10118934 3.94963829 249.1094809 2.24859238 249.12706375 C-13.21088213 249.27811929 -13.21088213 249.27811929 -18.9992342 245.07909584 C-23.64700496 240.03303524 -23.87067309 235.87487195 -23.82518005 229.30091858 C-23.83056559 228.36982991 -23.83595113 227.43874124 -23.84149987 226.47943777 C-23.85581297 223.35798377 -23.84866736 220.23695183 -23.84155273 217.11547852 C-23.84725453 214.87819578 -23.85421805 212.64091596 -23.86235046 210.40364075 C-23.88031778 204.32517359 -23.87910676 198.24685052 -23.87340808 192.16836476 C-23.87032145 187.09611385 -23.87640281 182.02389083 -23.88244683 176.95164388 C-23.89730603 164.30271673 -23.89366865 151.65387652 -23.88158352 139.00495588 C-23.87165108 128.02263388 -23.88459181 117.04048035 -23.90851771 106.05818433 C-23.93290678 94.77819879 -23.94211728 83.49828971 -23.93586498 72.2182712 C-23.93249062 65.88672878 -23.93494243 59.55532557 -23.95211601 53.22380257 C-23.9675584 47.27051883 -23.96365941 41.3175573 -23.94481087 35.36428642 C-23.94111754 33.1785628 -23.944255 30.99281545 -23.95469666 28.80711365 C-23.967857 25.82477588 -23.95640255 22.84351256 -23.93870544 19.86122131 C-23.94831045 18.99497275 -23.95791546 18.12872419 -23.96781152 17.23622566 C-23.90189844 11.8427355 -22.99079798 8.81383884 -19.4375 4.51757812 C-13.86738301 -0.8965282 -7.3010497 -0.04625287 0 0 Z M-6.4375 17.51757812 C-6.4375 88.13757813 -6.4375 158.75757813 -6.4375 231.51757812 C48.6725 231.51757812 103.7825 231.51757812 160.5625 231.51757812 C160.5625 175.74757812 160.5625 119.97757812 160.5625 62.51757812 C142.2475 62.02257812 142.2475 62.02257812 123.5625 61.51757812 C117.5625 57.51757812 117.5625 57.51757812 115.5625 50.51757812 C115.2325 39.62757812 114.9025 28.73757812 114.5625 17.51757812 C74.6325 17.51757812 34.7025 17.51757812 -6.4375 17.51757812 Z " fill="#6699FF" transform="translate(325.4375,6.482421875)"/>
<path d="M0 0 C2.86475679 2.01699137 4.70609479 3.62411297 5.45826447 7.14531803 C5.64467826 9.88321092 5.66126364 12.5801773 5.62818909 15.32434082 C5.63528347 16.37455807 5.64237786 17.42477532 5.64968723 18.50681734 C5.66731193 22.03160807 5.6491385 25.55530267 5.63110352 29.08007812 C5.63624058 31.60469567 5.64352024 34.12930964 5.65278625 36.65391541 C5.66940812 42.80259649 5.66264777 48.9508701 5.64469803 55.09953582 C5.63067342 60.09653649 5.62677891 65.0934509 5.6301403 70.09046936 C5.63061775 70.80161613 5.63109519 71.51276291 5.6315871 72.24545959 C5.63261343 73.69013228 5.63366879 75.13480496 5.63475286 76.57947761 C5.64332085 89.35464371 5.6266418 102.12965639 5.59692383 114.90478516 C5.56808614 127.30166061 5.56100271 139.69831505 5.57641602 152.09521484 C5.59317631 165.59399054 5.59721417 179.09266129 5.57970566 192.59143972 C5.57786126 194.03080335 5.57602654 195.47016699 5.57420158 196.90953064 C5.57328949 197.61772848 5.5723774 198.32592632 5.57143768 199.0555847 C5.5658312 204.04668241 5.56914049 209.03772891 5.57574654 214.02882385 C5.58428453 220.74626923 5.57132561 227.46334811 5.54389763 234.18075752 C5.53699904 236.64908971 5.5369315 239.11745162 5.54411316 241.585783 C5.5527735 244.94943369 5.53690838 248.31209169 5.5146637 251.67565918 C5.52290446 252.65765809 5.53114523 253.63965699 5.53963572 254.65141344 C5.48669897 258.97398983 5.39876939 261.35380142 3.08686733 265.10019684 C0.8556342 267.13142503 0.03202802 267.71872173 -2.94140625 267.7265625 C-9.67802022 267.32277769 -15.20653696 263.6446735 -20.9375 260.375 C-22.17665477 259.68685441 -23.41691134 259.00068952 -24.65820312 258.31640625 C-27.20646084 256.90913926 -29.7493953 255.49291544 -32.28857422 254.06933594 C-37.82045837 250.9748088 -43.41249968 247.99252094 -49 245 C-51.14868827 243.84291348 -53.29712404 242.68535793 -55.4453125 241.52734375 C-62.25028919 237.86320415 -69.06188733 234.21148466 -75.875 230.5625 C-77.5919104 229.64271362 -77.5919104 229.64271362 -79.34350586 228.7043457 C-84.86067619 225.74942202 -90.37905543 222.79681036 -95.90032959 219.8495636 C-98.49625279 218.46364212 -101.09157174 217.07659135 -103.68682861 215.68942261 C-104.92753061 215.02667998 -106.16853353 214.36450037 -107.40985107 213.70291138 C-109.12943841 212.78639267 -110.84794743 211.86785167 -112.56640625 210.94921875 C-113.54552979 210.42674561 -114.52465332 209.90427246 -115.53344727 209.3659668 C-118 208 -118 208 -121 206 C-123.57833165 205.68509492 -123.57833165 205.68509492 -126.50952148 205.71289062 C-127.63756699 205.69947632 -128.76561249 205.68606201 -129.92784119 205.67224121 C-131.14661453 205.66696411 -132.36538788 205.66168701 -133.62109375 205.65625 C-134.87253677 205.6416272 -136.1239798 205.62700439 -137.41334534 205.61193848 C-141.42136762 205.565345 -145.42933408 205.53079518 -149.4375 205.5 C-154.70721561 205.45947343 -159.97656947 205.40527605 -165.24609375 205.34375 C-166.46284286 205.3384729 -167.67959198 205.3331958 -168.93321228 205.32775879 C-170.06440994 205.31434448 -171.1956076 205.30093018 -172.36108398 205.28710938 C-173.3557518 205.27981812 -174.35041962 205.27252686 -175.37522888 205.26501465 C-178.1162312 204.98826451 -179.71032552 204.5107472 -182 203 C-184.23151726 199.65272411 -184.25383732 198.57046673 -184.26742554 194.66165161 C-184.27595551 193.55408508 -184.28448547 192.44651855 -184.29327393 191.3053894 C-184.29236755 190.08973297 -184.29146118 188.87407654 -184.29052734 187.62158203 C-184.29724457 186.3417041 -184.30396179 185.06182617 -184.31088257 183.74316406 C-184.32856178 180.23070224 -184.33323876 176.71833783 -184.33451414 173.20583582 C-184.33641304 170.27345877 -184.34377052 167.34110442 -184.35085833 164.40873611 C-184.36714741 157.4897642 -184.37202684 150.57084435 -184.37060547 143.65185547 C-184.36940407 136.51551428 -184.39050401 129.37947556 -184.4220928 122.24321091 C-184.44824928 116.11571999 -184.45897303 109.98832788 -184.45769465 103.86078155 C-184.4571848 100.20135169 -184.46288031 96.54219055 -184.48405075 92.88281631 C-184.50702149 88.80073647 -184.49791619 84.71933359 -184.48583984 80.63720703 C-184.49707886 79.42559906 -184.50831787 78.21399109 -184.51989746 76.96566772 C-184.45896422 68.87990673 -184.45896422 68.87990673 -182.29826355 64.73750305 C-179.50692193 62.62722959 -178.21418826 62.428847 -174.74194336 62.56274414 C-173.68729889 62.58766937 -172.63265442 62.6125946 -171.54605103 62.63827515 C-169.83522842 62.71098129 -169.83522842 62.71098129 -168.08984375 62.78515625 C-165.64306577 62.83390793 -163.19619701 62.87825919 -160.74926758 62.91870117 C-159.47177643 62.94499603 -158.19428528 62.97129089 -156.87808228 62.99838257 C-134.4988182 63.36251681 -117.21838182 63.29530285 -98.6328125 49.8515625 C-94.41338674 46.88419186 -89.87299254 44.5809352 -85.3125 42.1875 C-83.53606452 41.21533208 -81.76137347 40.239971 -79.98828125 39.26171875 C-72.69623648 35.27092919 -65.34601142 31.39019307 -58 27.5 C-48.5764417 22.50823796 -39.16935996 17.49117059 -29.8125 12.375 C-28.93134521 11.89514648 -28.05019043 11.41529297 -27.14233398 10.92089844 C-23.41218106 8.88594272 -19.69560067 6.83544024 -16.015625 4.7109375 C-14.30632812 3.74027344 -14.30632812 3.74027344 -12.5625 2.75 C-11.63566406 2.20859375 -10.70882812 1.6671875 -9.75390625 1.109375 C-6.19582652 -0.32395074 -3.80351208 -0.53171984 0 0 Z M-18.98046875 25.02734375 C-20.20709229 25.7078479 -20.20709229 25.7078479 -21.45849609 26.40209961 C-22.35906738 26.90878174 -23.25963867 27.41546387 -24.1875 27.9375 C-26.18259388 29.04347229 -28.1787535 30.14752349 -30.17578125 31.25 C-31.81087646 32.15298828 -31.81087646 32.15298828 -33.47900391 33.07421875 C-39.22377232 36.22854297 -45.0223777 39.28266567 -50.81515503 42.34759521 C-67.02779653 50.92602505 -83.18076757 59.61035092 -99.26171875 68.43359375 C-100.27733887 68.99006592 -101.29295898 69.54653809 -102.33935547 70.11987305 C-104.27325564 71.18019916 -106.20594145 72.24274416 -108.13720703 73.30786133 C-109.42473877 74.0139856 -109.42473877 74.0139856 -110.73828125 74.734375 C-111.49149658 75.14913086 -112.24471191 75.56388672 -113.02075195 75.99121094 C-129.07656838 84.17458746 -148.98273912 78.6323008 -167 79 C-167 114.97 -167 150.94 -167 188 C-142.745 188.495 -142.745 188.495 -118 189 C-103.70592327 194.75827735 -103.70592327 194.75827735 -97.36914062 199.34472656 C-93.31475621 202.17744774 -88.93015797 204.3815196 -84.5625 206.6875 C-82.75000559 207.67862232 -80.93885341 208.67220235 -79.12890625 209.66796875 C-71.10040851 214.05190693 -63.00964864 218.31892565 -54.92510986 222.59829712 C-45.17415236 227.76078083 -35.45645665 232.97673932 -25.81054688 238.33398438 C-25.00552734 238.77806641 -24.20050781 239.22214844 -23.37109375 239.6796875 C-22.68974365 240.05851074 -22.00839355 240.43733398 -21.30639648 240.82763672 C-18.27581079 242.36811227 -15.12475713 243.66081837 -12 245 C-12 171.74 -12 98.48 -12 23 C-15.24144579 23 -16.22385857 23.47874675 -18.98046875 25.02734375 Z " fill="#6699FF" transform="translate(193,238)"/>
<path d="M0 0 C2.05938216 1.57885966 2.84571211 2.69142423 4 5 C4.09878926 6.55672446 4.13504726 8.11761316 4.14044189 9.67745972 C4.14615204 10.66415146 4.15186218 11.6508432 4.15774536 12.66743469 C4.15942215 14.29747688 4.15942215 14.29747688 4.16113281 15.96044922 C4.16609772 17.10214066 4.17106262 18.24383209 4.17617798 19.42012024 C4.19083665 23.21498205 4.19761013 27.00980197 4.203125 30.8046875 C4.20887635 33.44109092 4.21463408 36.07749432 4.22039795 38.71389771 C4.22997735 43.54508451 4.23586814 48.37626228 4.2388947 53.20745742 C4.24335988 60.29524527 4.26083084 67.38283878 4.2898953 74.47056758 C4.31161373 79.95950133 4.32160458 85.44838087 4.32293582 90.93735707 C4.32397785 94.20967592 4.33122893 97.48177236 4.34775543 100.75405502 C4.36492902 104.41805167 4.36290712 108.08158422 4.35644531 111.74560547 C4.3656601 112.81205795 4.37487488 113.87851044 4.3843689 114.97727966 C4.2988216 130.56692123 -0.77898579 143.39153185 -11.5234375 154.7109375 C-24.72899496 166.91670512 -40.06573592 169.09490648 -57.31494141 169.20532227 C-58.29175873 169.21522186 -59.26857605 169.22512146 -60.2749939 169.23532104 C-63.46715974 169.2666214 -66.65934041 169.29156751 -69.8515625 169.31640625 C-72.07929852 169.33700303 -74.30703087 169.35800017 -76.53475952 169.37937927 C-82.37075817 169.43431877 -88.20679042 169.48385096 -94.04284668 169.53222656 C-100.00906328 169.58264816 -105.97523166 169.63822591 -111.94140625 169.69335938 C-123.62756287 169.80059649 -135.31376155 169.90211658 -147 170 C-146.18789063 170.91652344 -145.37578125 171.83304688 -144.5390625 172.77734375 C-142.31401243 175.28847168 -141.99262707 176.04202573 -141.375 179.5625 C-142.17772509 183.97748801 -143.34170376 185.43140902 -147 188 C-150.4574279 188.78281386 -152.6128356 188.85780971 -155.69921875 186.94921875 C-157.92945531 185.07698111 -159.94776021 183.06809945 -162 181 C-163.26867186 179.75433247 -164.53828847 178.50962676 -165.80859375 177.265625 C-168.5162426 174.59690503 -171.21937895 171.92402061 -173.90234375 169.23046875 C-174.47460693 168.65707764 -175.04687012 168.08368652 -175.63647461 167.49291992 C-178.20306874 164.6827636 -178.54231735 161.95766884 -178.44140625 158.18359375 C-177.53694992 153.70933632 -174.16186052 151.09396781 -171 148 C-169.75343869 146.7335102 -168.50882182 145.46510507 -167.265625 144.1953125 C-164.59736378 141.48587738 -161.9248668 138.78112229 -159.23046875 136.09765625 C-158.37038208 135.23926147 -158.37038208 135.23926147 -157.49291992 134.36352539 C-155.15417626 132.22748559 -153.91660862 131.99055947 -150.6875 131.625 C-147 132 -147 132 -144.0625 134.0625 C-142 137 -142 137 -141.3125 140.375 C-142.02366927 144.12480163 -142.59336023 145.01484263 -145.04296875 147.7265625 C-145.59364014 148.34354004 -146.14431152 148.96051758 -146.71166992 149.59619141 C-147.34939331 150.29107666 -147.34939331 150.29107666 -148 151 C-135.15161265 151.04645347 -122.30324547 151.08193519 -109.45479107 151.10362434 C-103.4879782 151.11403693 -97.52122303 151.12814988 -91.55444336 151.15087891 C-85.79023996 151.17269748 -80.02609188 151.1845876 -74.26185036 151.18975449 C-72.06876569 151.1934341 -69.87568387 151.20061926 -67.68262291 151.21146011 C-64.59783898 151.2260949 -61.51328016 151.22797295 -58.4284668 151.22705078 C-57.08517807 151.23783661 -57.08517807 151.23783661 -55.7147522 151.24884033 C-43.65615134 151.21013439 -32.20141358 149.14594499 -23.125 140.6875 C-15.10892733 131.99241883 -13.70236904 121.91470511 -13.71289062 110.52856445 C-13.70605759 109.39279968 -13.69922455 108.25703491 -13.69218445 107.08685303 C-13.6786299 104.62933127 -13.66955518 102.17178157 -13.66447449 99.71422768 C-13.6561723 95.82689751 -13.63565672 91.93980075 -13.61193848 88.05253601 C-13.5589552 79.10428581 -13.52542543 70.15598304 -13.49217987 61.2076416 C-13.45904075 52.3424283 -13.41822849 43.47734844 -13.36405945 34.61223412 C-13.3439627 30.77885298 -13.33566719 26.94555972 -13.32775879 23.11213684 C-13.31479044 20.76917192 -13.30127073 18.42620997 -13.28710938 16.08325195 C-13.28858223 14.48026497 -13.28858223 14.48026497 -13.29008484 12.84489441 C-13.28181168 11.86505585 -13.27353851 10.88521729 -13.26501465 9.87568665 C-13.26208153 9.02566731 -13.25914841 8.17564798 -13.2561264 7.29987049 C-12.97418411 4.76818789 -12.32538454 3.16327993 -11 1 C-7.4367155 -1.7714435 -4.20758349 -0.99451973 0 0 Z " fill="#6599FF" transform="translate(481,278)"/>
<path d="M0 0 C1.82568359 1.29394531 1.82568359 1.29394531 3.7109375 3.015625 C4.40759521 3.65040771 5.10425293 4.28519043 5.82202148 4.93920898 C9.41781006 8.3415239 12.94695849 11.80244009 16.4375 15.3125 C17.51547852 16.38467773 17.51547852 16.38467773 18.61523438 17.47851562 C19.29779297 18.16236328 19.98035156 18.84621094 20.68359375 19.55078125 C21.29775146 20.16606689 21.91190918 20.78135254 22.54467773 21.4152832 C24.45413632 23.49451416 24.96871644 24.83576131 25.5 27.625 C24.9546555 31.30607539 24.39862992 32.02609986 21.98828125 34.68359375 C21.03526123 35.73450195 21.03526123 35.73450195 20.06298828 36.80664062 C16.66829208 40.41586556 13.20071268 43.94382325 9.6875 47.4375 C8.61532227 48.51547852 8.61532227 48.51547852 7.52148438 49.61523438 C6.83763672 50.29779297 6.15378906 50.98035156 5.44921875 51.68359375 C4.83393311 52.29775146 4.21864746 52.91190918 3.5847168 53.54467773 C1.15175291 55.77898643 0.00780682 55.99927715 -3.375 56.3125 C-7 56 -7 56 -9.375 54.375 C-11.38506043 51.43721938 -11.92733979 49.5603504 -12 46 C-10.47384477 42.71876625 -8.56316239 40.49836334 -6 38 C-19.77830216 37.90716437 -33.55652943 37.83616589 -47.3350811 37.79275131 C-53.73359124 37.77191049 -60.13188678 37.74365636 -66.53027344 37.69824219 C-72.70945459 37.65466023 -78.8884298 37.63083654 -85.06775284 37.62049103 C-87.42078008 37.61312188 -89.77379653 37.59873176 -92.12673569 37.57707977 C-95.43222833 37.54788244 -98.73687884 37.54405092 -102.04248047 37.54589844 C-103.00705673 37.53151733 -103.971633 37.51713623 -104.96543884 37.50231934 C-115.05050582 37.56298741 -123.59960289 41.12820268 -131 48 C-138.34406634 55.95607187 -139.44599211 65.23980078 -139.40063477 75.68261719 C-139.40761383 76.81706772 -139.4145929 77.95151825 -139.42178345 79.12034607 C-139.4416747 82.84593249 -139.44125968 86.57124035 -139.44140625 90.296875 C-139.4531835 92.8952102 -139.46654857 95.49353864 -139.48143005 98.09185791 C-139.5212424 105.61295931 -139.54097896 113.13400725 -139.55760193 120.65518951 C-139.58154177 130.89379676 -139.62107832 141.13227231 -139.67487907 151.37076569 C-139.69121285 155.18916415 -139.69498566 159.00743759 -139.69789124 162.8258667 C-139.70766558 165.16223366 -139.71792854 167.49859864 -139.72875977 169.83496094 C-139.72620682 170.89688156 -139.72365387 171.95880219 -139.72102356 173.05290222 C-139.72785156 174.03122513 -139.73467957 175.00954803 -139.74171448 176.01751709 C-139.74334878 176.86401699 -139.74498308 177.71051689 -139.74666691 178.5826683 C-140.13618471 182.29948917 -141.14552442 185.11500744 -143.75 187.8125 C-146.77894929 189.41111212 -148.61402051 189.48371136 -152 189 C-154.65196228 187.70056152 -154.65196228 187.70056152 -157 185 C-157.77057695 181.1292388 -157.6719568 177.28873187 -157.63110352 173.35351562 C-157.63825882 172.16276428 -157.64541412 170.97201294 -157.65278625 169.74517822 C-157.66680307 166.47989026 -157.65835225 163.21562667 -157.63869596 159.95039558 C-157.62228338 156.52335826 -157.63112736 153.09637164 -157.63621521 149.66931152 C-157.64073819 143.9057111 -157.62486619 138.14243492 -157.59692383 132.37890625 C-157.56499219 125.74193202 -157.56483943 119.10554648 -157.5821386 112.46853113 C-157.59809065 106.06339392 -157.59120696 99.65846978 -157.57420158 93.25334167 C-157.5673784 90.53910048 -157.56831465 87.82503253 -157.57574654 85.11079407 C-157.58123729 81.30071448 -157.56069317 77.49160906 -157.53344727 73.68164062 C-157.53997314 72.57157654 -157.54649902 71.46151245 -157.55322266 70.31781006 C-157.38235978 56.16384619 -152.02967395 44.17016202 -142.5 33.8125 C-132.04633986 23.7700277 -119.24179599 19.71149567 -105.01586914 19.68115234 C-103.93220062 19.67110672 -102.8485321 19.6610611 -101.73202515 19.65071106 C-98.16640735 19.61993286 -94.60086446 19.6028586 -91.03515625 19.5859375 C-88.55650694 19.56722157 -86.07786397 19.54764784 -83.59922791 19.5272522 C-77.08751162 19.4759701 -70.57577469 19.43632322 -64.06396484 19.39910889 C-57.41433132 19.36009672 -50.76479145 19.30796336 -44.11523438 19.2578125 C-31.07688416 19.16109957 -18.0384848 19.07630551 -5 19 C-5.42152344 18.60893066 -5.84304687 18.21786133 -6.27734375 17.81494141 C-6.82519531 17.29077637 -7.37304688 16.76661133 -7.9375 16.2265625 C-8.48277344 15.71174316 -9.02804688 15.19692383 -9.58984375 14.66650391 C-11.88861237 11.94984972 -12 9.4672041 -12 6 C-10.07709375 0.07103906 -5.7575885 -0.84948027 0 0 Z " fill="#6698FF" transform="translate(260,54)"/>
<path d="M0 0 C10.68216001 2.78746382 20.07574688 18.78148657 25.54199219 27.79492188 C39.54531029 51.92161434 44.39524143 80.52508116 38.265625 107.89453125 C32.58465116 128.13166071 21.1355432 154.52334972 2.1953125 165.79296875 C-0.78451521 166.98963912 -2.72900929 166.46885015 -5.76953125 165.58203125 C-8.34837045 163.63047726 -9.52159213 162.21014369 -10.70703125 159.20703125 C-10.81365026 154.72903283 -8.66238128 151.52402899 -5.640625 148.3359375 C-4.83753906 147.61277344 -4.03445312 146.88960937 -3.20703125 146.14453125 C13.08222157 130.2352027 21.97895107 108.40718576 22.57958984 85.76269531 C22.81288736 61.03315813 13.83626772 38.85138075 -2.76953125 20.58203125 C-4.09204731 19.27929113 -5.42426852 17.98626881 -6.76953125 16.70703125 C-8.82615872 14.70289312 -9.73562708 13.6657945 -10.83203125 10.95703125 C-10.73602506 7.30879603 -9.54392192 4.82966066 -7.64453125 1.76953125 C-5.15691158 0.19403879 -2.92170476 -0.1436904 0 0 Z " fill="#6599FF" transform="translate(254.76953125,288.41796875)"/>
<path d="M0 0 C0.87045456 -0.00571014 1.74090912 -0.01142029 2.63774109 -0.01730347 C3.58483948 -0.01842133 4.53193787 -0.01953918 5.50773621 -0.02069092 C6.5114476 -0.02565582 7.515159 -0.03062073 8.54928589 -0.03573608 C11.87032252 -0.05034303 15.19131139 -0.05715721 18.51237488 -0.06268311 C20.82159425 -0.06843565 23.13081361 -0.07419338 25.44003296 -0.07995605 C30.28291547 -0.09046179 35.1257814 -0.0963073 39.96867371 -0.09979248 C46.16935332 -0.10527702 52.36981333 -0.12930621 58.57042408 -0.15776443 C63.34113197 -0.17640221 68.11178708 -0.18159703 72.88252831 -0.18312836 C75.16823719 -0.1861527 77.45394519 -0.19417382 79.7396183 -0.20731354 C82.9398373 -0.22439786 86.13952115 -0.22248776 89.33976746 -0.21600342 C90.751306 -0.22982559 90.751306 -0.22982559 92.19136047 -0.243927 C97.75251188 -0.20868931 101.7115911 0.44762138 106.61784363 3.14044189 C108.21530242 6.33535948 108.12601205 9.67253579 107.61784363 13.14044189 C105.41043682 16.10902346 104.1318699 16.9690998 100.61784363 18.14044189 C99.18235918 18.23299963 97.74298154 18.27100369 96.30451965 18.27415466 C95.42413528 18.27841965 94.54375092 18.28268463 93.63668823 18.28707886 C92.67350174 18.28662567 91.71031525 18.28617249 90.71794128 18.28570557 C89.193144 18.29074348 89.193144 18.29074348 87.63754272 18.29588318 C84.26898484 18.30540099 80.90047663 18.30733672 77.53190613 18.30841064 C75.19404581 18.31162269 72.8561857 18.31498672 70.51832581 18.3184967 C65.61399367 18.32449008 60.70967917 18.32633639 55.80534363 18.32574463 C49.51817052 18.325643 43.23111034 18.33929462 36.943964 18.35651684 C32.11414571 18.36763048 27.28435477 18.36966403 22.45452499 18.3691349 C20.13646938 18.370316 17.81841308 18.37474502 15.50037003 18.38246727 C12.25901105 18.39225401 9.01789789 18.38939418 5.77653503 18.38336182 C4.817397 18.38898132 3.85825897 18.39460083 2.87005615 18.40039062 C-7.09033227 18.35323757 -7.09033227 18.35323757 -11.19465637 14.39044189 C-12.7932685 11.36149261 -12.86586773 9.52642138 -12.38215637 6.14044189 C-9.50634384 1.51860032 -9.50634384 1.51860032 -6.51541615 0.51250076 C-4.30065132 0.12622671 -2.24780441 0.00886619 0 0 Z " fill="#6698FF" transform="translate(354.3821563720703,192.85955810546875)"/>
<path d="M0 0 C14.20475297 9.6785892 22.19073408 25.52263566 25.6171875 41.9609375 C28.02996579 61.11544272 24.05519432 79.37243056 12.72265625 95.17578125 C3.89362108 106.26716487 3.89362108 106.26716487 -1.09765625 107.53125 C-4.38215841 107.4790114 -6.66884317 107.1986941 -9.5 105.5 C-11.19110108 102.68149821 -11.74814595 100.42609826 -11.578125 97.12890625 C-10.64564704 93.69511917 -8.436304 91.70447904 -6.0078125 89.1875 C3.84814612 78.44949061 8.43603584 64.99542164 8.2734375 50.60546875 C7.2691783 37.3635938 1.72122731 26.76066923 -7.4375 17.375 C-10.24330586 14.33446719 -11.58089286 12.36324043 -11.8125 8.1875 C-11.48609837 4.91203098 -11.05950598 4.07175722 -8.875 1.4375 C-5.33933859 -0.33033071 -3.89612263 -0.84034017 0 0 Z " fill="#6599FF" transform="translate(224,318)"/>
<path d="M0 0 C0.92108047 -0.0071553 1.84216095 -0.01431061 2.79115295 -0.02168274 C3.80468842 -0.02437164 4.81822388 -0.02706055 5.86247253 -0.02983093 C6.92762589 -0.03640213 7.99277924 -0.04297333 9.09020996 -0.04974365 C12.62652144 -0.06950704 16.16279042 -0.08114552 19.69914246 -0.09111023 C20.90464941 -0.09518576 22.11015636 -0.09926128 23.35219383 -0.10346031 C29.7315949 -0.12433318 36.11097437 -0.13863012 42.49040222 -0.147995 C49.08822721 -0.15906705 55.68571563 -0.19347308 62.28342152 -0.23316669 C67.34914794 -0.25927824 72.41479348 -0.26768195 77.48058128 -0.27127647 C79.91309064 -0.27615589 82.34559608 -0.28780811 84.77803993 -0.30631447 C88.18015548 -0.33059088 91.58139114 -0.32976161 94.98356628 -0.32279968 C95.99102905 -0.33560974 96.99849182 -0.3484198 98.03648376 -0.36161804 C102.42284922 -0.32885117 104.92371976 -0.27260394 108.74020386 2.03787231 C110.87829837 4.44069737 111.29656569 5.46702902 111.24211121 8.64717102 C111.26144714 9.77638977 111.26144714 9.77638977 111.28117371 10.92842102 C110.24539749 14.38913214 108.70209313 15.27541372 105.61711121 17.14717102 C102.08509632 17.74272146 98.59027311 17.69357086 95.01530457 17.66474915 C93.94810684 17.67175842 92.88090912 17.6787677 91.78137207 17.68598938 C88.25630116 17.70358451 84.73203393 17.69194138 81.20695496 17.67842102 C78.75745489 17.68111528 76.30795587 17.68499715 73.85845947 17.6900177 C68.72639273 17.69591467 63.59460455 17.68734223 58.46257019 17.6686554 C51.87923256 17.6458542 45.29654677 17.6589958 38.71323299 17.68294525 C33.65608798 17.69738729 28.59909796 17.69280467 23.54194832 17.68243408 C21.11421698 17.67976303 18.68647163 17.68304977 16.25875664 17.69235229 C12.8686319 17.7024925 9.47956882 17.68705134 6.08952332 17.66474915 C5.08317841 17.67284607 4.0768335 17.68094299 3.03999329 17.68928528 C-3.72658872 17.60667018 -3.72658872 17.60667018 -6.9788208 15.32966614 C-8.98095464 12.21753243 -9.31827229 9.83031159 -9.38288879 6.14717102 C-7.09484821 1.1352726 -5.34225944 0.0284366 0 0 Z " fill="#6599FF" transform="translate(351.3828887939453,145.8528289794922)"/>
<path d="M0 0 C1.33103004 -0.00856522 1.33103004 -0.00856522 2.68894958 -0.01730347 C3.65991577 -0.01842133 4.63088196 -0.01953918 5.63127136 -0.02069092 C7.16828957 -0.02813828 7.16828957 -0.02813828 8.73635864 -0.03573608 C12.13257006 -0.05036357 15.52873477 -0.05716074 18.92497253 -0.06268311 C21.28285728 -0.06843411 23.640742 -0.07419185 25.99862671 -0.07995605 C30.94583861 -0.09046774 35.89303424 -0.0963093 40.84025574 -0.09979248 C47.17894391 -0.10527727 53.51741729 -0.12930447 59.85603809 -0.15776443 C64.727932 -0.17638972 69.59977416 -0.18159637 74.47170067 -0.18312836 C76.80847536 -0.18615569 79.14524912 -0.19418691 81.48198891 -0.20731354 C84.75196795 -0.22437118 88.0214221 -0.22249422 91.29142761 -0.21600342 C92.25632111 -0.2252182 93.2212146 -0.23443298 94.21534729 -0.243927 C99.43434797 -0.21148115 103.16482504 0.15992103 107.65544128 3.14044189 C109.22015361 6.26986655 109.35246086 9.75126413 108.65544128 13.14044189 C107.29582214 15.23649597 107.29582214 15.23649597 104.65544128 17.14044189 C101.10594677 17.76118432 97.57922837 17.69674563 93.98356628 17.67388916 C92.89700745 17.68250473 91.81044861 17.6911203 90.69096375 17.69999695 C87.09554802 17.72271945 83.50090768 17.71590644 79.90544128 17.70684814 C77.40967069 17.7120807 74.91390207 17.71835582 72.4181366 17.72563171 C67.18596597 17.73604738 61.95399737 17.73178559 56.72184753 17.71685791 C50.67538857 17.69992996 44.6296512 17.7157802 38.58327103 17.74808079 C32.76330046 17.7779928 26.94360963 17.77996256 21.12358093 17.7705822 C18.64839235 17.76976068 16.17318894 17.77666212 13.69804382 17.79135323 C10.24059585 17.80872852 6.78470108 17.79431329 3.32731628 17.77154541 C2.30069885 17.78323761 1.27408142 17.79492981 0.21635437 17.80697632 C-6.70173 17.71405533 -6.70173 17.71405533 -9.9803009 14.78849792 C-11.65967482 11.52879423 -11.94796029 9.76085136 -11.34455872 6.14044189 C-8.19735628 1.25685191 -5.67824484 0.02190426 0 0 Z " fill="#6698FF" transform="translate(353.3445587158203,97.85955810546875)"/>
<path d="M0 0 C0.69480972 -0.00846954 1.38961945 -0.01693909 2.10548401 -0.02566528 C4.39741425 -0.04902362 6.68867273 -0.0500578 8.98071289 -0.04882812 C10.57727832 -0.05593039 12.17384119 -0.06362948 13.770401 -0.07189941 C17.11523536 -0.08534146 20.4598337 -0.08691429 23.8046875 -0.08105469 C28.08676203 -0.07515833 32.36770283 -0.10574736 36.64955807 -0.14617157 C39.94647806 -0.17204712 43.24312499 -0.17492618 46.54013252 -0.17127991 C48.11857516 -0.17297128 49.69703038 -0.1826156 51.27537346 -0.20042419 C53.48513083 -0.22261385 55.69259285 -0.212916 57.90234375 -0.1953125 C59.15824814 -0.19736694 60.41415253 -0.19942139 61.70811462 -0.20153809 C65.92469123 0.59067111 67.40476962 2.07848756 70.01586914 5.41992188 C70.64086914 8.91992188 70.64086914 8.91992188 70.01586914 12.41992188 C67.41648773 15.73850092 65.93836804 17.24648921 61.74607849 18.03465271 C59.88886925 18.02704674 59.88886925 18.02704674 57.99414062 18.01928711 C56.96392792 18.02520119 56.96392792 18.02520119 55.91290283 18.03123474 C53.65350252 18.03792174 51.39614532 18.00883799 49.13696289 17.97851562 C47.56185803 17.97426288 45.98674688 17.97193665 44.41163635 17.97145081 C41.11544256 17.9652932 37.81993041 17.94263095 34.52392578 17.90698242 C30.30151376 17.8616732 26.07971791 17.84695399 21.85708523 17.84324551 C18.60653116 17.83881452 15.35610603 17.82350707 12.10560799 17.80436897 C10.54870729 17.79549825 8.99179289 17.78876268 7.43487358 17.7842083 C5.25908219 17.77515292 3.08384412 17.75275267 0.90820312 17.72631836 C-0.32914078 17.71567856 -1.56648468 17.70503876 -2.84132385 17.69407654 C-5.82916965 17.43343952 -7.50366499 17.0458846 -9.98413086 15.41992188 C-12.54679995 12.24709348 -12.03205825 9.15932526 -11.66381836 5.32226562 C-9.75216206 -0.0281747 -4.97994955 0.03340518 0 0 Z " fill="#6599FF" transform="translate(353.984130859375,50.580078125)"/>
<path d="M0 0 C6.01826738 4.97161218 11.66337352 10.29829243 17 16 C17 16.33 17 16.66 17 17 C11.39 17 5.78 17 0 17 C0 11.39 0 5.78 0 0 Z " fill="#99C7FF" transform="translate(457,35)"/>
</svg>
